Simulation
nRows=31
nColumns=15
endheader
time  TH_x TH_y TH_z SC_y  SC_z  SC_x  AC_y  AC_z  AC_x  GH_y  GH_z  GH_yy  EL_x  PS_y
0.0  0.000000  0.000000  0.000000  -21.481837363305974  5.049547332879065  0.3347068766571287  40.6327205033479  3.6997362027656857  -9.37071015879133  87.38721459880914  9.999399296735486  -32.79232316319109  20.949601274147824  120.000000
0.04802000000000001  0.000000  0.000000  0.000000  -22.008251534593168  4.667087879919193  -0.1147843699041973  41.041649552175016  4.441703122267608  -8.939379594950003  74.40597907995168  10.038918139379287  -21.090722007544397  20.375686144967922  120.000000
0.09604000000000001  0.000000  0.000000  0.000000  -22.38107891901896  4.333405252045309  -0.5832986550971649  41.34835601918208  5.042324469666713  -8.558040025552186  62.09117747121821  10.619798163737702  -10.148282749025393  19.786889415918065  120.000000
0.14406000000000002  0.000000  0.000000  0.000000  -22.54339567845984  4.062700503643624  -1.0583709626093563  41.51039522414469  5.465545869588265  -8.257000958807783  51.26914831245679  11.66189691217356  -0.9330169385305189  19.15286217694235  120.000000
0.19208000000000003  0.000000  0.000000  0.000000  -22.53641646825612  3.8722794982085165  -1.5299011938874203  41.54517044086393  5.69557598794792  -8.013015021394716  42.16881663687225  13.075327686613477  6.170966849009859  18.473958090163258  120.000000
0.24010000000000004  0.000000  0.000000  0.000000  -22.404584727603243  3.7375732289009798  -1.9779654592392553  41.50538127386891  5.750944491816741  -7.8124895545972555  34.55633329658805  14.783067162992037  11.290392073594463  17.754437319110224  120.000000
0.28812000000000004  0.000000  0.000000  0.000000  -22.207260499209735  3.645343917870152  -2.380012505350253  41.44657600122026  5.667519580183981  -7.634579954294451  28.063578518853006  16.735186349275107  14.77099880418537  17.00545052099735  120.000000
0.33614000000000005  0.000000  0.000000  0.000000  -21.993540181829662  3.579932245817084  -2.7087157980593632  41.43102337854312  5.488823273986337  -7.466633679295524  22.361361772893915  18.90303615181466  16.997984251883032  16.234253728737848  120.000000
0.38416000000000006  0.000000  0.000000  0.000000  -21.84016395082302  3.542074388154561  -2.9240603732047505  41.493726428169474  5.257466447143178  -7.306005335130346  17.308103971637745  21.270301094677553  18.2329286936432  15.462485508336743  120.000000
0.43218000000000006  0.000000  0.000000  0.000000  -21.827728308425478  3.5367914003055585  -2.9913522910723467  41.64633393356713  5.026337274281412  -7.156410608088271  12.875659950182271  23.80977638023653  18.668726669715486  14.713849403007673  120.000000
0.48020000000000007  0.000000  0.000000  0.000000  -22.03409324748258  3.5885737829541267  -2.87659785528366  41.88532829100527  4.840928835502774  -7.020719410940845  9.05051057986236  26.473678395868095  18.496046612440455  14.01064065815699  120.000000
0.5282200000000001  0.000000  0.000000  0.000000  -22.50878833531115  3.7312994900320806  -2.5451732161361145  42.20116836730406  4.727177516136164  -6.902575089420837  5.744232707217366  29.194259710853643  17.963517181411646  13.361154218320372  120.000000
0.5762400000000001  0.000000  0.000000  0.000000  -23.27304033145255  4.006150022255281  -1.9654865799532433  42.58229616691899  4.682380160148325  -6.806161332340621  2.856913880528202  31.90423855607494  17.301782234005515  12.763860063746664  120.000000
0.62426  0.000000  0.000000  0.000000  -24.326045726605212  4.445917364043087  -1.104698979532013  43.017028398687934  4.679456854085694  -6.729022019885932  0.32926087971979356  34.552411111977435  16.665696593151825  12.212486211300758  120.000000
0.6722800000000001  0.000000  0.000000  0.000000  -25.653529285920943  5.068672375281051  0.06545240706830532  43.505551812158586  4.6723439350609235  -6.6596258361891065  -1.8534025856143015  37.11140691213188  16.123741283760943  11.702232310688975  120.000000
0.7203000000000002  0.000000  0.000000  0.000000  -27.232310684302323  5.870591275153688  1.559977676346424  44.05768136063441  4.609116827660886  -6.582116643473133  -3.6870494965074885  39.57021643491486  15.67986522463803  11.22805753853563  120.000000
0.7683200000000001  0.000000  0.000000  0.000000  -29.033613622423825  6.822292163960343  3.372112282585227  44.68465721963495  4.444697396987575  -6.4841006720044705  -5.166874958781873  41.921706489449754  15.292157580168217  10.779977632870969  120.000000
0.8163400000000001  0.000000  0.000000  0.000000  -31.01218904569091  7.873172846946218  5.46177670247429  45.38781278262441  4.16223138028267  -6.351271710967932  -6.291443842651546  44.14694853351102  14.8837152191632  10.341649171719457  120.000000
0.8643600000000001  0.000000  0.000000  0.000000  -33.105368142506485  8.973392233624292  7.781100922689307  46.157513333284506  3.7618566172866927  -6.175759088259042  -7.05504777039066  46.21562325286997  14.36187168088899  9.898424910273889  120.000000
0.9123800000000002  0.000000  0.000000  0.000000  -35.230139650834474  10.078668684029873  10.294736666063427  46.966306223623825  3.244741917539388  -5.973321481940344  -7.479862459521353  48.103926492743284  13.671930682016223  9.437525553437728  120.000000
0.9604000000000001  0.000000  0.000000  0.000000  -37.30136820146956  11.160728276904804  12.964801938174126  47.76779166924818  2.6153008111191545  -5.773403544137126  -7.61678107549473  49.79993306019856  12.80108402937199  8.956900035816934  120.000000
1.00842  0.000000  0.000000  0.000000  -39.243753995717206  12.203740205031915  15.746255199960705  48.5036942726379  1.882285460623548  -5.606747564842394  -7.536129736284742  51.30764310591501  11.7760125603108  8.469261777426386  120.000000
1.0564400000000003  0.000000  0.000000  0.000000  -40.99993575006735  13.203918557283476  18.587040094933915  49.12054087510929  1.0565565618326183  -5.501747030798305  -7.316988028977233  52.641006025774814  10.65417650809986  7.997715625077457  120.000000
1.1044600000000002  0.000000  0.000000  0.000000  -42.53759104280579  14.161612532304439  21.43567910755935  49.58303301590901  0.14750657958981558  -5.478603695088696  -7.036779082610606  53.81912060585903  9.512495076795805  7.569576687530959  120.000000
1.1524800000000002  0.000000  0.000000  0.000000  -43.84949981910711  15.078113574634367  24.24401716259187  49.880399660507756  -0.8364619976429671  -5.546192685520068  -6.766256771602191  54.85566870597751  8.436056895343913  7.209099831091617  120.000000
1.2005000000000001  0.000000  0.000000  0.000000  -44.95253693839521  15.95307249980414  26.96771066361796  50.02562971121414  -1.8874801333071844  -5.703570307050834  -6.560733518421049  55.75431627875247  7.50547624795136  6.934214601062592  120.000000
1.24852  0.000000  0.000000  0.000000  -45.877521355572924  16.782196890248652  29.5678581124513  50.048029807967566  -2.9902144045051595  -5.9385948122621315  -6.455469073064681  56.507042538794444  6.7869447212927865  6.755455788631777  120.000000
1.2965400000000002  0.000000  0.000000  0.000000  -46.65805057671098  17.56143783058782  32.00881912029346  49.98513995356794  -4.121422387029595  -6.230266067105746  -6.465441138416129  57.10222287882841  6.326436528136191  6.677479422253225  120.000000
1.3445600000000002  0.000000  0.000000  0.000000  -47.32202037397555  18.284591834627314  34.260549561947165  49.87109179388784  -5.248594885116042  -6.548453161898831  -6.592042690812319  57.53009421919577  6.147789019079494  6.698164831258721  120.000000
1.3925800000000002  0.000000  0.000000  0.000000  -47.88789209160495  18.9467672451204  36.298340479123084  49.73501942994231  -6.328700283915702  -6.85956067903426  -6.830842209376363  57.78500867047893  6.2515562632937955  6.802350774892737  120.000000
1.4406000000000003  0.000000  0.000000  0.000000  -48.367705865374035  19.540208616509297  38.108416364337074  49.60138085752476  -7.312829392890349  -7.128205813663026  -7.17512356969117  57.87124113057183  6.614954288093454  6.9598539967373885  120.000000
